<svg width="20" height="20" viewBox="0 0 20 20" fill="none" xmlns="http://www.w3.org/2000/svg">
<path d="M17.5002 4.16667C16.5752 3.875 15.5585 3.75 14.5835 3.75C12.9585 3.75 11.2085 4.08333 10.0002 5C8.79183 4.08333 7.04183 3.75 5.41683 3.75C3.79183 3.75 2.04183 4.08333 0.833496 5V17.2083C0.833496 17.4167 1.04183 17.625 1.25016 17.625C1.3335 17.625 1.37516 17.5833 1.4585 17.5833C2.5835 17.0417 4.2085 16.6667 5.41683 16.6667C7.04183 16.6667 8.79183 17 10.0002 17.9167C11.1252 17.2083 13.1668 16.6667 14.5835 16.6667C15.9585 16.6667 17.3752 16.9167 18.5418 17.5417C18.6252 17.5833 18.6668 17.5833 18.7502 17.5833C18.9585 17.5833 19.1668 17.375 19.1668 17.1667V5C18.6668 4.625 18.1252 4.375 17.5002 4.16667ZM17.5002 15.4167C16.5835 15.125 15.5835 15 14.5835 15C13.1668 15 11.1252 15.5417 10.0002 16.25V6.66667C11.1252 5.95833 13.1668 5.41667 14.5835 5.41667C15.5835 5.41667 16.5835 5.54167 17.5002 5.83333V15.4167Z" fill="#9DC5B3"/>
</svg>
