<svg width="18" height="16" viewBox="0 0 18 16" fill="none" xmlns="http://www.w3.org/2000/svg">
<path d="M17.4375 5.1875C17.4375 7.57813 16.0547 10.0312 13.3281 12.4844C12.09 13.5974 10.7419 14.5816 9.30469 15.4219C9.21132 15.4732 9.10652 15.5001 9 15.5001C8.89348 15.5001 8.78868 15.4732 8.69531 15.4219C8.35937 15.2344 0.5625 10.8047 0.5625 5.1875C0.5625 4.20368 0.87205 3.24479 1.4473 2.44667C2.02255 1.64855 2.83434 1.05166 3.76768 0.740547C4.70102 0.429435 5.70859 0.419873 6.64766 0.713218C7.58673 1.00656 8.40971 1.58794 9 2.375C9.59029 1.58794 10.4133 1.00656 11.3523 0.713218C12.2914 0.419873 13.299 0.429435 14.2323 0.740547C15.1657 1.05166 15.9774 1.64855 16.5527 2.44667C17.1279 3.24479 17.4375 4.20368 17.4375 5.1875Z" fill="#FF13F6"/>
</svg>
