<svg width="20" height="17" viewBox="0 0 20 17" fill="none" xmlns="http://www.w3.org/2000/svg">
<path d="M2.49992 16.5C2.04159 16.5 1.64936 16.3369 1.32325 16.0108C0.996585 15.6842 0.833252 15.2917 0.833252 14.8333V3.99999H2.49992V14.8333H16.6666V16.5H2.49992ZM5.83325 13.1667C5.37492 13.1667 4.9827 13.0036 4.65658 12.6775C4.32992 12.3508 4.16658 11.9583 4.16658 11.5V2.33332C4.16658 1.87499 4.32992 1.48249 4.65658 1.15582C4.9827 0.829712 5.37492 0.666656 5.83325 0.666656H9.99992L11.6666 2.33332H17.4999C17.9583 2.33332 18.3507 2.49666 18.6774 2.82332C19.0035 3.14943 19.1666 3.54166 19.1666 3.99999V11.5C19.1666 11.9583 19.0035 12.3508 18.6774 12.6775C18.3507 13.0036 17.9583 13.1667 17.4999 13.1667H5.83325Z" fill="#D0B4FF"/>
</svg>
