<svg width="18" height="18" viewBox="0 0 18 18" fill="none" xmlns="http://www.w3.org/2000/svg">
<path d="M9 16.5C13.1421 16.5 16.5 13.1421 16.5 9C16.5 4.85786 13.1421 1.5 9 1.5C4.85786 1.5 1.5 4.85786 1.5 9C1.5 13.1421 4.85786 16.5 9 16.5Z" stroke="#F24E1E" stroke-width="1.66667" stroke-linecap="round" stroke-linejoin="round"/>
<path d="M10.6668 7.33332C10.6668 6.8913 10.4912 6.46737 10.1787 6.15481C9.86611 5.84225 9.44219 5.66666 9.00016 5.66666C8.55814 5.66666 8.13421 5.84225 7.82165 6.15481C7.50909 6.46737 7.3335 6.8913 7.3335 7.33332V10.6667C7.3335 11.1087 7.50909 11.5326 7.82165 11.8452C8.13421 12.1577 8.55814 12.3333 9.00016 12.3333C9.44219 12.3333 9.86611 12.1577 10.1787 11.8452C10.4912 11.5326 10.6668 11.1087 10.6668 10.6667" stroke="#F24E1E" stroke-width="1.66667" stroke-linecap="round" stroke-linejoin="round"/>
</svg>
