<svg width="20" height="20" viewBox="0 0 20 20" fill="none" xmlns="http://www.w3.org/2000/svg">
<path d="M9.16658 4.16668V0.833344H10.8333V4.16668H9.16658ZM14.7083 6.45834L13.5624 5.31251L15.8958 2.91668L17.0624 4.10418L14.7083 6.45834ZM15.8333 10.8333V9.16668H19.1666V10.8333H15.8333ZM9.16658 19.1667V15.8333H10.8333V19.1667H9.16658ZM5.29158 6.41668L2.91658 4.10418L4.10409 2.93751L6.45825 5.29168L5.29158 6.41668ZM15.8749 17.0833L13.5624 14.6875L14.6874 13.5625L17.0624 15.8542L15.8749 17.0833ZM0.833252 10.8333V9.16668H4.16658V10.8333H0.833252ZM4.10409 17.0833L2.93742 15.8958L5.27075 13.5625L5.87492 14.125L6.47908 14.7083L4.10409 17.0833ZM9.99992 15C8.61103 15 7.43047 14.5139 6.45825 13.5417C5.48603 12.5695 4.99992 11.3889 4.99992 10C4.99992 8.61112 5.48603 7.43056 6.45825 6.45834C7.43047 5.48612 8.61103 5.00001 9.99992 5.00001C11.3888 5.00001 12.5694 5.48612 13.5416 6.45834C14.5138 7.43056 14.9999 8.61112 14.9999 10C14.9999 11.3889 14.5138 12.5695 13.5416 13.5417C12.5694 14.5139 11.3888 15 9.99992 15Z" fill="#F24E1E"/>
</svg>
