<svg width="18" height="16" viewBox="0 0 18 16" fill="none" xmlns="http://www.w3.org/2000/svg">
<path d="M8.99984 0.5C13.5832 0.5 17.3332 3.48333 17.3332 7.16667C17.3332 10.85 13.5832 13.8333 8.99984 13.8333C7.9665 13.8333 6.97484 13.6833 6.05817 13.4167C3.62484 15.5 0.666504 15.5 0.666504 15.5C2.60817 13.5583 2.9165 12.25 2.95817 11.75C1.5415 10.5583 0.666504 8.94167 0.666504 7.16667C0.666504 3.48333 4.4165 0.5 8.99984 0.5ZM13.1665 8V6.33333H11.4998V8H13.1665ZM9.83317 8V6.33333H8.1665V8H9.83317ZM6.49984 8V6.33333H4.83317V8H6.49984Z" fill="#E4A951"/>
</svg>
