<svg width="18" height="16" viewBox="0 0 18 16" fill="none" xmlns="http://www.w3.org/2000/svg">
<path fill-rule="evenodd" clip-rule="evenodd" d="M17.3476 1.22832L16.8559 2.54582C16.6543 3.01796 16.451 3.48935 16.2459 3.95999C15.6809 5.17249 14.9026 6.58999 13.9734 7.56832C13.0851 8.50165 11.7451 9.36249 10.6717 9.97332C10.8133 10.6506 10.7838 11.3525 10.5859 12.0156C10.388 12.6786 10.028 13.2819 9.53841 13.7708C7.64674 15.6625 5.53341 15.6625 3.96174 15.1958C2.77007 14.8408 1.79007 14.1975 0.853408 13.4058C0.814906 13.3735 0.784353 13.3327 0.764106 13.2866C0.74386 13.2406 0.734461 13.1905 0.736635 13.1403C0.738809 13.09 0.752498 13.041 0.776646 12.9968C0.800794 12.9527 0.834755 12.9147 0.875908 12.8858L1.29257 12.5842C1.85257 12.1617 2.39674 11.6458 2.53424 10.955C2.63007 10.1842 2.68424 9.76332 2.69841 9.69415C2.81341 9.11999 3.05674 8.46832 3.64674 7.87749C4.13561 7.38802 4.73873 7.02809 5.40161 6.83021C6.06449 6.63234 6.76623 6.60276 7.44341 6.74415C8.05424 5.67165 8.91507 4.33165 9.84841 3.44415C10.8267 2.51415 12.2442 1.73582 13.4567 1.17082L14.8709 0.559988L16.1884 0.0691549C16.3499 0.0134998 16.5238 0.0043373 16.6902 0.0427119C16.8567 0.0810865 17.009 0.165454 17.1299 0.286198C17.2507 0.406943 17.3352 0.559206 17.3737 0.725631C17.4121 0.892057 17.4031 1.06595 17.3476 1.22749V1.22832ZM8.98341 7.41082C9.38085 7.69024 9.72681 8.03648 10.0059 8.43415C10.3326 8.24499 10.6684 8.03999 10.9976 7.82415L10.9726 7.76832C10.8354 7.48013 10.6493 7.21791 10.4226 6.99332C10.2224 6.79224 9.99287 6.6228 9.74174 6.49082L9.59257 6.41915C9.37674 6.74832 9.17257 7.08415 8.98341 7.41082ZM15.1851 2.23165C14.8659 2.36415 14.5184 2.51499 14.1601 2.68165C12.9867 3.22915 11.7717 3.91499 10.9967 4.65165C10.8601 4.7827 10.7294 4.91978 10.6051 5.06249C10.9067 5.22916 11.2567 5.47082 11.6009 5.81582C11.9459 6.15999 12.1876 6.50999 12.3542 6.81165C12.5026 6.68165 12.6409 6.55082 12.7651 6.41999C13.5017 5.64499 14.1876 4.42999 14.7351 3.25582C14.9017 2.89749 15.0526 2.55082 15.1851 2.23165Z" fill="#9747FF"/>
</svg>
