<svg width="17" height="18" viewBox="0 0 17 18" fill="none" xmlns="http://www.w3.org/2000/svg">
<path d="M8.5 16.5C12.6421 16.5 16 13.1421 16 9C16 4.85786 12.6421 1.5 8.5 1.5C4.35786 1.5 1 4.85786 1 9C1 13.1421 4.35786 16.5 8.5 16.5Z" stroke="#4ECB71" stroke-width="1.66667" stroke-linecap="round" stroke-linejoin="round"/>
<path d="M8.50016 8.99999C8.94219 8.99999 9.36611 9.17558 9.67867 9.48815C9.99123 9.80071 10.1668 10.2246 10.1668 10.6667C10.1668 11.1087 9.99123 11.5326 9.67867 11.8452C9.36611 12.1577 8.94219 12.3333 8.50016 12.3333H6.8335V5.66666H8.50016C8.94219 5.66666 9.36611 5.84225 9.67867 6.15481C9.99123 6.46737 10.1668 6.8913 10.1668 7.33332C10.1668 7.77535 9.99123 8.19927 9.67867 8.51183C9.36611 8.82439 8.94219 8.99999 8.50016 8.99999ZM8.50016 8.99999H6.8335" stroke="#4ECB71" stroke-width="1.66667" stroke-linecap="round" stroke-linejoin="round"/>
</svg>
