<svg width="21" height="20" viewBox="0 0 21 20" fill="none" xmlns="http://www.w3.org/2000/svg">
<path d="M17.8125 2.62499C17.5976 2.48597 17.3519 2.40186 17.0968 2.38007C16.8418 2.35827 16.5854 2.39945 16.35 2.49999L8.6375 5.53749C8.45491 5.6118 8.25964 5.65001 8.0625 5.64999H3.125C2.7106 5.64999 2.31317 5.81461 2.02015 6.10764C1.72712 6.40066 1.5625 6.79809 1.5625 7.21249V7.33749H0V11.0875H1.5625V11.25C1.57229 11.6579 1.74122 12.0457 2.0332 12.3307C2.32517 12.6156 2.71702 12.7751 3.125 12.775L5 16.75C5.12696 17.0177 5.32685 17.2441 5.5767 17.4033C5.82656 17.5625 6.11624 17.648 6.4125 17.65H7.2C7.61223 17.6467 8.00645 17.4806 8.29678 17.1879C8.58711 16.8953 8.75001 16.4997 8.75 16.0875V12.925L16.35 15.9625C16.5369 16.0369 16.7363 16.0751 16.9375 16.075C17.2496 16.07 17.5536 15.9744 17.8125 15.8C18.0181 15.6612 18.1877 15.4754 18.3072 15.258C18.4268 15.0407 18.4929 14.798 18.5 14.55V3.91249C18.4989 3.65814 18.4356 3.40791 18.3158 3.18353C18.196 2.95916 18.0232 2.76743 17.8125 2.62499ZM7.1875 7.21249V11.25H3.125V7.21249H7.1875ZM7.1875 16.0875H6.4L4.8625 12.775H7.1875V16.0875ZM9.2125 11.4375C9.06409 11.3616 8.90933 11.2989 8.75 11.25V7.12499C8.90781 7.09243 9.06254 7.04643 9.2125 6.98749L16.9375 3.91249V14.5125L9.2125 11.4375ZM18.5375 7.64999V10.775C18.9519 10.775 19.3493 10.6104 19.6424 10.3173C19.9354 10.0243 20.1 9.62689 20.1 9.21249C20.1 8.79809 19.9354 8.40066 19.6424 8.10764C19.3493 7.81461 18.9519 7.64999 18.5375 7.64999Z" fill="#0FA958"/>
</svg>
