<svg width="18" height="16" viewBox="0 0 18 16" fill="none" xmlns="http://www.w3.org/2000/svg">
<path d="M13.9998 7.16667C13.9998 6.3675 13.4332 5.69917 12.6823 5.53833C12.9823 5.0375 13.1665 4.45833 13.1665 3.83333C13.1665 1.995 11.6715 0.5 9.83317 0.5C8.56984 0.5 7.4815 1.21417 6.9165 2.25333C6.3515 1.21417 5.26317 0.5 3.99984 0.5C2.1615 0.5 0.666504 1.995 0.666504 3.83333C0.666504 4.585 0.926504 5.27167 1.34734 5.83C1.13695 5.98377 0.965689 6.18488 0.847415 6.41709C0.72914 6.6493 0.667166 6.90607 0.666504 7.16667V13.8333C0.666504 14.7525 1.414 15.5 2.33317 15.5H12.3332C13.2523 15.5 13.9998 14.7525 13.9998 13.8333V11.6358L17.3332 13.3025V7.46917L13.9998 9.13583V7.16667ZM9.83317 2.16667C10.7523 2.16667 11.4998 2.91417 11.4998 3.83333C11.4998 4.7525 10.7523 5.5 9.83317 5.5C8.914 5.5 8.1665 4.7525 8.1665 3.83333C8.1665 2.91417 8.914 2.16667 9.83317 2.16667ZM3.99984 2.16667C4.919 2.16667 5.6665 2.91417 5.6665 3.83333C5.6665 4.7525 4.919 5.5 3.99984 5.5C3.08067 5.5 2.33317 4.7525 2.33317 3.83333C2.33317 2.91417 3.08067 2.16667 3.99984 2.16667Z" fill="#F3BDB3"/>
</svg>
