<svg width="20" height="20" viewBox="0 0 20 20" fill="none" xmlns="http://www.w3.org/2000/svg">
<path d="M9.7706 13.6842C9.31128 13.6842 8.92393 13.5351 8.60854 13.2368C8.29238 12.9386 8.15344 12.5877 8.19171 12.1842C8.24913 11.4474 8.44051 10.807 8.76585 10.2632C9.0912 9.7193 9.60792 9.15789 10.316 8.57895C11.1007 7.94737 11.6986 7.39895 12.1096 6.93368C12.5215 6.46912 12.7274 5.9386 12.7274 5.34211C12.7274 4.62281 12.4645 4.02632 11.9385 3.55263C11.4119 3.07895 10.6796 2.84211 9.74189 2.84211C9.12947 2.84211 8.60816 2.96035 8.17794 3.19684C7.74695 3.43404 7.39749 3.72807 7.12956 4.07895C6.86163 4.42982 6.53169 4.66667 6.13974 4.78947C5.74703 4.91228 5.36887 4.90351 5.00525 4.76316C4.56507 4.58772 4.26384 4.29825 4.10155 3.89474C3.9385 3.49123 3.9718 3.11404 4.20145 2.76316C4.75645 1.97368 5.50283 1.31579 6.44059 0.789474C7.37835 0.263158 8.47878 0 9.74189 0C11.7514 0 13.297 0.513333 14.3786 1.54C15.4595 2.56596 16 3.79825 16 5.23684C16 6.11404 15.7945 6.86421 15.3834 7.48737C14.9715 8.10982 14.3254 8.81579 13.4451 9.60526C12.7944 10.1667 12.3351 10.6228 12.0671 10.9737C11.7992 11.3246 11.6174 11.7281 11.5217 12.1842C11.4452 12.6228 11.2442 12.9825 10.9189 13.2632C10.5935 13.5439 10.2108 13.6842 9.7706 13.6842ZM9.74189 20C9.11034 20 8.56988 19.794 8.12052 19.3821C7.6704 18.9695 7.44533 18.4737 7.44533 17.8947C7.44533 17.3158 7.6704 16.82 8.12052 16.4074C8.56988 15.9954 9.11034 15.7895 9.74189 15.7895C10.3734 15.7895 10.9143 15.9954 11.3644 16.4074C11.8138 16.82 12.0384 17.3158 12.0384 17.8947C12.0384 18.4737 11.8138 18.9695 11.3644 19.3821C10.9143 19.794 10.3734 20 9.74189 20Z" fill="#7A5D46"/>
</svg>
