<svg width="20" height="20" viewBox="0 0 20 20" fill="none" xmlns="http://www.w3.org/2000/svg">
<path d="M1 3V4.40625C1 8.29688 3.04829 11.7 6.09756 13.5938V18H20V16.125C20 13.6312 15.06 12.375 12.5854 12.375H12.3537C7.95122 12.375 4.2439 8.625 4.2439 4.40625V3M12.5854 3C11.6021 3 10.6592 3.39509 9.9639 4.09835C9.26864 4.80161 8.87805 5.75544 8.87805 6.75C8.87805 7.74456 9.26864 8.69839 9.9639 9.40165C10.6592 10.1049 11.6021 10.5 12.5854 10.5C13.5686 10.5 14.5116 10.1049 15.2068 9.40165C15.9021 8.69839 16.2927 7.74456 16.2927 6.75C16.2927 5.75544 15.9021 4.80161 15.2068 4.09835C14.5116 3.39509 13.5686 3 12.5854 3Z" fill="#699BF7"/>
</svg>
