<svg width="20" height="20" viewBox="0 0 20 20" fill="none" xmlns="http://www.w3.org/2000/svg">
<path d="M19.398 7.41501L11.954 5.41901L10.651 0.558015C10.542 0.152015 10.106 -0.0839854 9.67797 0.0290146L0.601967 2.46101C0.173967 2.57501 -0.0840329 2.99901 0.0249671 3.40501L3.25497 15.456C3.36397 15.862 3.79897 16.099 4.22597 15.983L7.83897 15.016L7.34697 16.854C7.23797 17.26 7.49597 17.684 7.92397 17.797L16.034 19.971C16.462 20.086 16.896 19.85 17.006 19.442L19.976 8.35801C20.084 7.95201 19.826 7.52801 19.398 7.41501ZM1.63297 3.63101L9.46297 1.53501L12.361 12.353L4.53097 14.449L1.63297 3.63101ZM15.678 18.463L8.86397 16.6L9.39997 14.598L13.301 13.551C13.729 13.438 13.989 13.014 13.879 12.608L12.371 6.98101L18.318 8.61201L15.678 18.463Z" fill="#D27C2C"/>
</svg>
