<svg width="20" height="20" viewBox="0 0 20 20" fill="none" xmlns="http://www.w3.org/2000/svg">
<path fill-rule="evenodd" clip-rule="evenodd" d="M11.6668 1.66666V6.24999C11.6668 6.58151 11.7985 6.89945 12.0329 7.13387C12.2674 7.36829 12.5853 7.49999 12.9168 7.49999H17.5002V13.3333C17.5002 13.7754 17.3246 14.1993 17.012 14.5118C16.6994 14.8244 16.2755 15 15.8335 15H14.1668V16.6667C14.1668 17.1087 13.9912 17.5326 13.6787 17.8452C13.3661 18.1577 12.9422 18.3333 12.5002 18.3333H5.00016C4.55814 18.3333 4.13421 18.1577 3.82165 17.8452C3.50909 17.5326 3.3335 17.1087 3.3335 16.6667V6.66666C3.3335 6.22463 3.50909 5.80071 3.82165 5.48815C4.13421 5.17558 4.55814 4.99999 5.00016 4.99999H6.66683V3.33332C6.66683 2.8913 6.84242 2.46737 7.15499 2.15481C7.46755 1.84225 7.89147 1.66666 8.3335 1.66666H11.6668ZM6.66683 6.66666H5.00016V16.6667H12.5002V15H8.3335C7.89147 15 7.46755 14.8244 7.15499 14.5118C6.84242 14.1993 6.66683 13.7754 6.66683 13.3333V6.66666ZM13.3335 1.70249C13.6492 1.76945 13.9387 1.92665 14.1668 2.15499L17.0118 4.99999C17.2402 5.22809 17.3974 5.51759 17.4643 5.83332H13.3335V1.70249Z" fill="#85B6FF"/>
</svg>
