<svg width="16" height="16" viewBox="0 0 16 16" fill="none" xmlns="http://www.w3.org/2000/svg">
<path d="M12.7201 8.12498L12.1145 7.51934L3.63384 16H0V12.3653L9.69108 2.67337L14.5371 7.51934C14.6976 7.67998 14.7879 7.89783 14.7879 8.12498C14.7879 8.35212 14.6976 8.56997 14.5371 8.73062L8.48066 14.7879L7.26853 13.5766L12.7201 8.12498ZM13.3258 0.25081L15.7492 2.67337C15.9098 2.83401 16 3.05186 16 3.27901C16 3.50615 15.9098 3.724 15.7492 3.88465L14.5371 5.09678L10.9032 1.46209L12.1145 0.25081C12.2751 0.0902165 12.493 0 12.7201 0C12.9473 0 13.1651 0.0902165 13.3258 0.25081Z" fill="#7A5D46"/>
</svg>
